<svg width="194" height="257" viewBox="0 0 194 257" fill="none" xmlns="http://www.w3.org/2000/svg">
<line x1="0.492404" y1="13.9132" x2="40.9166" y2="243.17" stroke="black"/>
<line x1="152.508" y1="243.998" x2="193.078" y2="13.9132" stroke="black"/>
<path d="M152.5 242.5C152.5 244.223 151.13 246 148.301 247.717C145.501 249.415 141.418 250.962 136.327 252.269C126.154 254.88 112.073 256.5 96.5 256.5C80.9273 256.5 66.846 254.88 56.6728 252.269C51.5823 250.962 47.4986 249.415 44.6994 247.717C41.8704 246 40.5 244.223 40.5 242.5C40.5 240.777 41.8704 239 44.6994 237.283C47.4986 235.585 51.5823 234.038 56.6728 232.731C66.846 230.12 80.9273 228.5 96.5 228.5C112.073 228.5 126.154 230.12 136.327 232.731C141.418 234.038 145.501 235.585 148.301 237.283C151.13 239 152.5 240.777 152.5 242.5Z" stroke="black"/>
<g filter="url(#filter0_dd_0_1)">
<path d="M172.5 129.5C172.5 130.31 172.072 131.165 171.115 132.057C170.159 132.948 168.72 133.832 166.822 134.688C163.028 136.399 157.508 137.953 150.646 139.262C136.932 141.878 117.965 143.5 97 143.5C76.0348 143.5 57.0676 141.878 43.3536 139.262C36.4925 137.953 30.9716 136.399 27.178 134.688C25.2796 133.832 23.8413 132.948 22.885 132.057C21.9283 131.165 21.5 130.31 21.5 129.5C21.5 128.69 21.9283 127.835 22.885 126.943C23.8413 126.052 25.2796 125.168 27.178 124.312C30.9716 122.601 36.4925 121.047 43.3536 119.738C57.0676 117.122 76.0348 115.5 97 115.5C117.965 115.5 136.932 117.122 150.646 119.738C157.508 121.047 163.028 122.601 166.822 124.312C168.72 125.168 170.159 126.052 171.115 126.943C172.072 127.835 172.5 128.69 172.5 129.5Z" stroke="black" shape-rendering="crispEdges"/>
</g>
<path d="M193.5 14.5C193.5 15.2587 192.984 16.106 191.734 17.0185C190.499 17.9208 188.646 18.812 186.211 19.6726C181.347 21.3917 174.28 22.9483 165.515 24.2585C147.993 26.8779 123.769 28.5 97 28.5C70.231 28.5 46.0069 26.8779 28.4846 24.2585C19.7196 22.9483 12.6534 21.3917 7.78935 19.6726C5.35425 18.812 3.50079 17.9208 2.26564 17.0185C1.01648 16.106 0.5 15.2587 0.5 14.5C0.5 13.7413 1.01648 12.894 2.26564 11.9815C3.50079 11.0792 5.35425 10.188 7.78935 9.32737C12.6534 7.60831 19.7196 6.05169 28.4846 4.74146C46.0069 2.12214 70.231 0.5 97 0.5C123.769 0.5 147.993 2.12214 165.515 4.74146C174.28 6.05169 181.347 7.60831 186.211 9.32737C188.646 10.188 190.499 11.0792 191.734 11.9815C192.984 12.894 193.5 13.7413 193.5 14.5Z" stroke="black"/>
<defs>
<filter id="filter0_dd_0_1" x="17" y="115" width="160" height="37" filterUnits="userSpaceOnUse" color-interpolation-filters="sRGB">
<feFlood flood-opacity="0" result="BackgroundImageFix"/>
<feColorMatrix in="SourceAlpha" type="matrix" values="0 0 0 0 0 0 0 0 0 0 0 0 0 0 0 0 0 0 127 0" result="hardAlpha"/>
<feOffset dy="4"/>
<feGaussianBlur stdDeviation="2"/>
<feComposite in2="hardAlpha" operator="out"/>
<feColorMatrix type="matrix" values="0 0 0 0 0 0 0 0 0 0 0 0 0 0 0 0 0 0 0.25 0"/>
<feBlend mode="normal" in2="BackgroundImageFix" result="effect1_dropShadow_0_1"/>
<feColorMatrix in="SourceAlpha" type="matrix" values="0 0 0 0 0 0 0 0 0 0 0 0 0 0 0 0 0 0 127 0" result="hardAlpha"/>
<feOffset dy="4"/>
<feGaussianBlur stdDeviation="2"/>
<feComposite in2="hardAlpha" operator="out"/>
<feColorMatrix type="matrix" values="0 0 0 0 0 0 0 0 0 0 0 0 0 0 0 0 0 0 0.25 0"/>
<feBlend mode="normal" in2="effect1_dropShadow_0_1" result="effect2_dropShadow_0_1"/>
<feBlend mode="normal" in="SourceGraphic" in2="effect2_dropShadow_0_1" result="shape"/>
</filter>
</defs>
</svg>
